PathFileType	4	(X/Y/Z)	S01_0005_Gait_markers.trc
DataRate	CameraRate	NumFrames	NumMarkers	Units	OrigDataRate	OrigDataStartFrame	OrigNumFrames
250.000000	250.000000	4	54	mm	250.000000	81	324
Frame#	Time	HEAD_ANT			R_HEAD			L_HEAD			C7			R_BACK			L_BACK			STERNUM			R_ACROMION			R_HUM_PROX			R_HUM_ANT			R_HUM_POST			R_ELBOW_LAT			R_ELBOW_MED			R_FOREARM			R_WIRST_LAT			R_WRITS_MED			R_HAND			L_ACROMION			L_HUM_PROX			L_HUM_ANT			L_HUM_POST			L_ELBOW_LAT			L_ELBOW_MED			L_FOREARM			L_WRIST_LAT			L_WIRST_MED			L_HAND			R_ILIAC			SACRUM			L_ILIAC			R_GTROCH			R_THIGH__1			R_THIGH_2			R_THIGH_3			R_THIGH_4			R_SHANK_1			R_SHANK_2			R_SHANK_3			R_SHANK_4			R_HEEL			R_FOOT_LAT			R_FOOT_MED			L_GTROCH			L_THIGH_1			L_THIGH_2			L_THIGH_3			L_THIGH_4			L_SHANK_1			L_SHANK_2			L_SHANK_3			L_SHANK_4			L_HEEL			L_FOOT_LAT			L_FOOT_MED			
		X1	Y1	Z1	X2	Y2	Z2	X3	Y3	Z3	X4	Y4	Z4	X5	Y5	Z5	X6	Y6	Z6	X7	Y7	Z7	X8	Y8	Z8	X9	Y9	Z9	X10	Y10	Z10	X11	Y11	Z11	X12	Y12	Z12	X13	Y13	Z13	X14	Y14	Z14	X15	Y15	Z15	X16	Y16	Z16	X17	Y17	Z17	X18	Y18	Z18	X19	Y19	Z19	X20	Y20	Z20	X21	Y21	Z21	X22	Y22	Z22	X23	Y23	Z23	X24	Y24	Z24	X25	Y25	Z25	X26	Y26	Z26	X27	Y27	Z27	X28	Y28	Z28	X29	Y29	Z29	X30	Y30	Z30	X31	Y31	Z31	X32	Y32	Z32	X33	Y33	Z33	X34	Y34	Z34	X35	Y35	Z35	X36	Y36	Z36	X37	Y37	Z37	X38	Y38	Z38	X39	Y39	Z39	X40	Y40	Z40	X41	Y41	Z41	X42	Y42	Z42	X43	Y43	Z43	X44	Y44	Z44	X45	Y45	Z45	X46	Y46	Z46	X47	Y47	Z47	X48	Y48	Z48	X49	Y49	Z49	X50	Y50	Z50	X51	Y51	Z51	X52	Y52	Z52	X53	Y53	Z53	X54	Y54	Z54	

82	0.324	637.9564208984375	1748.973754882812	-275.4601440429684	577.7203979492188	1691.422485351562	-204.3945922851559	581.380126953125	1707.726318359375	-351.6909484863277	442.9115905761719	1528.646850585938	-294.981781005859	371.5165100097656	1329.867797851562	-235.9147338867185	378.439453125	1336.094360351562	-373.682434082031	619.8185424804688	1365.932861328125	-294.0965576171872	515.9381713867188	1474.77490234375	-122.3391418457028	482.5770263671875	1312.117919921875	-34.88625717163057	549.1332397460938	1228.509155273438	-38.07888412475559	426.9996032714844	1225.709106445312	-21.54809570312473	482.7013854980469	1120.645385742188	-20.9071655273435	445.7689208984375	1119.088989257812	-96.44706726074195	611.3148193359375	958.1259765625	-52.42284393310526	655.0555419921875	906.9785766601562	-101.2897872924803	598.2344360351562	864.5306396484375	-61.49391555786114	685.7711791992188	819.1705322265625	-53.2800979614256	529.7034301757812	1490.333984375	-461.232269287109	504.92919921875	1327.612915039063	-563.4375610351559	564.5263061523438	1245.296630859375	-567.0349121093748	443.7568664550781	1252.903198242188	-590.7180175781248	499.7390441894531	1146.158813476563	-601.8605957031248	448.3907775878906	1140.21142578125	-544.1723632812498	601.2529907226562	969.2404174804689	-593.7501220703123	632.78662109375	904.6146240234376	-543.0460815429685	587.82763671875	889.0823974609376	-610.2426147460935	658.233154296875	825.5901489257814	-592.6361694335935	524.2278442382812	1081.834228515625	-131.8723907470701	394.1193542480469	1054.685913085938	-299.4936828613279	515.029541015625	1076.886352539062	-475.9883117675779	478.0135498046875	932.4119262695312	-122.4246597290037	523.0674438476562	651.7811889648438	-152.2188415527342	579.1807250976562	669.7564086914062	-148.7228088378905	585.5447998046875	569.0845336914062	-187.4338226318358	521.4471435546875	572.4222412109375	-175.5937957763671	500.5678100585938	346.0150451660157	-179.7277832031249	552.896240234375	322.7252197265626	-198.9774475097655	542.1138305664062	239.571762084961	-219.7340240478515	480.4562683105469	249.1287536621094	-204.3879241943359	420.5230102539062	48.02868652343756	-292.3392028808594	581.1041259765625	19.64952278137212	-204.2024841308594	639.8139038085938	29.27982902526862	-306.6767578125	482.5256042480469	960.7041625976564	-483.0401916503904	628.88818359375	686.5587768554689	-494.1539916992186	571.6295166015625	698.2611083984376	-506.1130371093748	575.94921875	592.4423828125001	-489.2447204589843	638.8710327148438	605.3572387695314	-483.9435729980468	485.18994140625	371.7359008789064	-482.5172119140624	429.7504577636719	395.7522888183595	-478.8316345214843	370.1180114746094	333.6253967285157	-461.7139587402343	420.6088562011719	293.9692382812501	-460.8823852539062	220.5988464355469	225.5360412597657	-384.1828002929687	317.9804992675781	86.27039337158213	-462.8122253417969	357.2198486328125	69.85943603515634	-371.418701171875	
83	0.328	643.480712890625	1749.607177734375	-275.6922607421871	583.1409912109375	1692.196533203125	-204.4910430908199	586.82666015625	1708.233154296875	-351.7403869628902	448.2325134277344	1529.290161132812	-295.0157775878903	377.0588073730469	1330.7177734375	-235.3190155029294	384.248046875	1336.482788085938	-373.4826354980466	625.1716918945312	1366.784057617188	-294.1163024902341	521.59814453125	1475.724365234375	-122.4563827514645	488.6795654296875	1312.90234375	-34.55057907104463	555.2546997070312	1229.487060546875	-38.10186386108371	433.2907409667969	1226.584106445312	-21.15310096740695	489.0278625488281	1121.570068359375	-20.5863704681394	452.3637390136719	1119.735229492188	-96.3033294677732	618.515380859375	959.6177368164062	-53.14064407348611	662.2335815429688	908.4041748046875	-102.1767883300779	605.7614135742188	866.008544921875	-62.09542083740215	693.6113891601562	820.7446899414062	-54.61184310913067	534.7247314453125	1490.894653320312	-461.2854003906247	509.5132446289062	1328.370483398438	-563.6221313476559	568.7916870117188	1246.042236328125	-567.5821533203123	448.22705078125	1253.63623046875	-590.686340332031	504.2105407714844	1146.7998046875	-602.163391113281	453.2809753417969	1140.710571289063	-544.3378295898435	605.5625	970.1147460937501	-594.2042846679685	637.1378173828125	905.2916259765626	-543.726135253906	591.9578857421875	889.5912475585939	-610.8468627929685	662.61669921875	826.1904907226564	-593.3383789062498	528.3934326171875	1081.839477539062	-131.2741851806638	399.5564880371094	1055.336791992188	-299.2407226562498	520.6603393554688	1077.85888671875	-475.6484069824216	482.8362731933594	932.8663940429688	-122.5705261230467	525.3218994140625	652.3727416992188	-152.0749053955077	581.6110229492188	669.8555297851562	-148.088165283203	587.151611328125	569.0856323242188	-186.7173767089843	523.10888671875	572.9385986328125	-175.3708496093749	501.1617736816406	346.3727111816407	-179.7379913330077	553.4485473632812	322.9167480468751	-198.831817626953	542.555419921875	239.7609558105469	-219.7178497314453	480.8344421386719	249.5324096679688	-204.554946899414	420.7618713378906	48.60057449340827	-292.7205810546875	581.1068725585938	19.6991348266602	-204.2988586425781	640.0427856445312	29.36110496521003	-306.5321350097656	488.00244140625	961.8388671875001	-483.0773315429685	637.1597290039062	688.3581542968751	-493.805206298828	579.7077026367188	699.6815185546876	-506.0368041992186	585.5580444335938	594.0011596679689	-489.3255920410155	647.7122802734375	607.3018798828126	-483.1769104003905	496.5037841796875	371.340057373047	-481.8553466796874	440.836181640625	394.9128723144532	-478.3785095214843	381.9122619628906	331.7935180664064	-461.4449157714843	433.0647277832031	292.8064270019532	-460.5736999511718	233.6803283691406	221.0355377197266	-384.3353881835937	334.9070434570312	83.86313629150401	-462.2078552246094	373.9732666015625	68.88708496093759	-370.5867309570312	
84	0.332	648.89453125	1750.183715820312	-275.8649291992184	588.5478515625	1692.86376953125	-204.6983032226559	592.1396484375	1708.707397460938	-351.9974365234371	453.6529235839844	1529.636962890625	-294.8940124511715	382.4244384765625	1331.431396484375	-234.6566009521482	389.2089233398438	1336.942626953125	-373.3942260742185	630.5578002929688	1367.6728515625	-293.9560852050778	527.2106323242188	1476.443115234375	-122.39338684082	494.96826171875	1313.631469726562	-34.46472549438447	561.56640625	1230.460205078125	-37.96844863891575	439.6795654296875	1227.140869140625	-20.79952812194797	495.6585693359375	1122.407958984375	-20.43991851806616	458.7798461914062	1120.438598632812	-95.86987304687474	625.6290893554688	960.862060546875	-53.81208419799783	669.3567504882812	909.9926147460938	-103.1516036987303	613.2415771484375	867.236572265625	-62.71892929077129	701.3599853515625	822.5198974609375	-55.75123596191388	539.9417724609375	1491.373901367188	-461.3981018066403	514.2977294921875	1328.881591796875	-563.8390502929684	573.4976806640625	1246.626220703125	-567.639465332031	452.7684631347656	1254.501586914063	-590.638000488281	508.4931335449219	1147.698364257813	-602.4738769531248	457.4584045410156	1141.57666015625	-544.5949707031248	609.630859375	970.6844482421876	-594.816955566406	641.4827880859375	905.8729858398439	-544.4605712890623	596.04248046875	890.1335449218751	-611.0822143554685	666.8851928710938	826.7825317382814	-594.1425170898435	534.2477416992188	1082.2451171875	-130.8732910156248	404.6943359375	1056.138549804688	-298.6974792480466	525.9955444335938	1078.94140625	-475.2086486816404	487.7377014160156	933.5210571289062	-122.4609527587888	527.5411987304688	652.895751953125	-151.7625274658202	583.9063110351562	669.7405395507812	-147.8223724365233	588.6788940429688	569.0933227539062	-186.2148284912108	524.8495483398438	573.5957641601562	-175.0494995117186	501.6928405761719	346.7361145019532	-179.7157440185546	554.0186157226562	323.1920471191407	-198.6825256347655	542.9749755859375	239.9669342041016	-219.6419677734374	481.0424194335938	249.7679290771485	-204.3742218017578	420.0784606933594	50.01597976684577	-291.9568786621094	581.06396484375	19.66973114013676	-204.3926849365234	640.2561645507812	29.36842346191413	-306.394287109375	493.2353210449219	962.8979492187501	-483.2464904785154	645.1914672851562	690.3176269531251	-493.144073486328	588.3143310546875	700.9453125000001	-506.0160827636717	594.732177734375	595.2781372070314	-488.9016113281249	656.5997314453125	609.3101196289064	-482.4198913574218	507.8460083007812	371.2777709960939	-481.5974426269531	451.8168029785156	393.5840454101564	-478.3749999999999	393.7466125488281	330.037078857422	-461.0977172851562	445.7651977539062	291.6189575195314	-460.0252685546874	246.8650817871094	216.2843780517579	-384.3619384765624	351.9738159179688	81.30661010742197	-461.8217468261719	388.8414001464844	67.74818420410165	-369.5105590820312	
85	0.336	654.331298828125	1750.625244140625	-276.2124023437496	593.7897338867188	1693.458740234375	-205.1034088134762	597.6500854492188	1709.17724609375	-352.368988037109	458.9314270019531	1530.261596679688	-294.8916015624997	387.94580078125	1331.99365234375	-234.0589904785153	394.1519165039062	1337.720947265625	-373.377990722656	635.8276977539062	1368.35791015625	-293.8991394042966	532.688720703125	1477.194091796875	-122.5112762451169	500.9660034179688	1314.358276367188	-34.13782119750947	567.814208984375	1231.297607421875	-37.96363067626926	445.979736328125	1227.903686523438	-20.23406410217258	502.1800231933594	1123.181518554688	-20.23214721679663	465.23828125	1121.365600585938	-95.72447967529271	632.8433837890625	962.2633666992188	-54.26092529296854	676.4318237304688	911.518310546875	-104.1239013671873	620.8811645507812	868.5306396484375	-63.29248809814434	709.0795288085938	823.9950561523438	-57.4097251892088	544.8482055664062	1491.749755859375	-461.3504638671872	518.8548583984375	1329.447875976563	-563.8061523437497	577.9775390625	1247.12744140625	-568.5065307617185	457.2970275878906	1255.09619140625	-590.9012451171873	512.6773071289062	1148.2548828125	-602.880920410156	461.6123657226562	1142.428466796875	-544.9730834960935	613.929931640625	971.0572509765626	-595.4247436523435	645.981201171875	906.2062988281251	-544.940490722656	600.1433715820312	890.7149047851564	-611.679504394531	670.9268188476562	827.3471679687501	-594.7810058593748	543.40966796875	1082.701293945312	-130.9704895019529	410.1272888183594	1056.6787109375	-298.4356384277341	531.2340698242188	1079.916015625	-474.8387145996091	492.6347351074219	934.005859375	-122.4150085449217	529.9085083007812	653.4242553710938	-151.5978088378905	586.3259887695312	669.8911743164062	-147.3716888427733	590.9156494140625	569.4470825195312	-186.7065277099608	526.3806762695312	574.019287109375	-175.2172393798827	502.2395629882812	347.5549316406251	-179.8816375732421	554.5253295898438	323.4357604980469	-198.499038696289	543.3837890625	240.2171325683594	-219.4691619873046	481.3952331542969	250.1509246826172	-204.4845428466796	420.5515441894531	50.43009948730475	-292.7599182128906	581.0734252929688	19.67831039428716	-204.4606018066406	640.46044921875	29.38023757934577	-306.2968139648438	498.7920837402344	963.9586181640626	-483.1776733398435	653.3296508789062	691.8571166992189	-492.5950622558592	596.46240234375	702.1242675781251	-505.9977722167967	603.4249877929688	596.6680297851564	-488.7455444335936	665.2490844726562	611.2141723632814	-481.7732849121093	519.542236328125	370.9635314941407	-480.9461669921874	462.9595031738281	392.3792114257814	-478.2675170898436	405.8035888671875	327.9666137695314	-461.0926513671874	458.3628234863281	290.463836669922	-459.6162414550781	260.1865539550781	211.4294586181641	-384.3923339843749	369.1730651855469	78.90961456298838	-461.2522888183594	405.7609252929688	66.41072845458993	-368.6243896484375	
